HIERARCHY
ROOT root
{
	OFFSET	0	13.1	24.9
	CHANNELS 6  Xposition Yposition Zposition Xrotation Yrotation Zrotation
	JOINT spine_1
	{
		OFFSET	0	9.99999	0
		CHANNELS 3  Xrotation Yrotation Zrotation
		JOINT spine_2
		{
			OFFSET	0	112	-10
			CHANNELS 3  Xrotation Yrotation Zrotation
			JOINT spine_3
			{
				OFFSET	0	206.5	19.3
				CHANNELS 3  Xrotation Yrotation Zrotation
				JOINT spine_4
				{
					OFFSET	0	110.4	14.6
					CHANNELS 3  Xrotation Yrotation Zrotation
					JOINT neck_1
					{
						OFFSET	0	71.8	-50.3
						CHANNELS 3  Xrotation Yrotation Zrotation
						JOINT neck_2
						{
							OFFSET	0	86.2	-25.8
							CHANNELS 3  Xrotation Yrotation Zrotation
							JOINT head_ee
							{
								OFFSET	0	179.8	-8.7
								CHANNELS 3  Xrotation Yrotation Zrotation
								End Site
								{
									OFFSET	1	0	0
								}
							}
						}
					}
					JOINT left_clavicle
					{
						OFFSET	-43.2	22.4	-70.8
						CHANNELS 3  Xrotation Yrotation Zrotation
						JOINT left_shoulder
						{
							OFFSET	-93.9	-5.79999	48.7
							CHANNELS 3  Xrotation Yrotation Zrotation
							JOINT left_elbow
							{
								OFFSET	-291.4	-30.8	15.2
								CHANNELS 3  Xrotation Yrotation Zrotation
								JOINT left_lowarm_twist
								{
									OFFSET	-110.7	-3.89999	13.6
									CHANNELS 3  Xrotation Yrotation Zrotation
									JOINT left_hand
									{
										OFFSET	-110.7	-3.89999	13.6
										CHANNELS 3  Xrotation Yrotation Zrotation
										JOINT left_ee
										{
											OFFSET	-80.8	-5.10001	12.1
											CHANNELS 3  Xrotation Yrotation Zrotation
											End Site
											{
												OFFSET	1	0	0
											}
										}
									}
								}
							}
						}
					}
					JOINT right_clavicle
					{
						OFFSET	43.2	22.4	-70.8
						CHANNELS 3  Xrotation Yrotation Zrotation
						JOINT right_shoulder
						{
							OFFSET	93.9	-5.79999	48.7
							CHANNELS 3  Xrotation Yrotation Zrotation
							JOINT right_elbow
							{
								OFFSET	291.4	-30.8	15.2
								CHANNELS 3  Xrotation Yrotation Zrotation
								JOINT right_lowarm_twist
								{
									OFFSET	110.7	-3.89999	13.6
									CHANNELS 3  Xrotation Yrotation Zrotation
									JOINT right_hand
									{
										OFFSET	110.7	-3.89999	13.6
										CHANNELS 3  Xrotation Yrotation Zrotation
										JOINT right_ee
										{
											OFFSET	80.8	-5.10001	12.1
											CHANNELS 3  Xrotation Yrotation Zrotation
											End Site
											{
												OFFSET	1	0	0
											}
										}
									}
								}
							}
						}
					}
				}
			}
		}
	}
	JOINT left_hip
	{
		OFFSET	-82.8	-127.5	0.300001
		CHANNELS 3  Xrotation Yrotation Zrotation
		JOINT left_knee
		{
			OFFSET	-28.2	-396.7	2.2
			CHANNELS 3  Xrotation Yrotation Zrotation
			JOINT left_ankle
			{
				OFFSET	-11.7	-411.3	35.4
				CHANNELS 3  Xrotation Yrotation Zrotation
				JOINT left_toes
				{
					OFFSET	0	-60	-88.6
					CHANNELS 3  Xrotation Yrotation Zrotation
					JOINT left_foot_ee
					{
						OFFSET	-22.5	-16.5	-42.2
						CHANNELS 3  Xrotation Yrotation Zrotation
						End Site
						{
							OFFSET	1	0	0
						}
					}
				}
			}
		}
	}
	JOINT right_hip
	{
		OFFSET	82.8	-127.5	0.300001
		CHANNELS 3  Xrotation Yrotation Zrotation
		JOINT right_knee
		{
			OFFSET	28.2	-396.7	2.2
			CHANNELS 3  Xrotation Yrotation Zrotation
			JOINT right_ankle
			{
				OFFSET	11.7	-411.3	35.4
				CHANNELS 3  Xrotation Yrotation Zrotation
				JOINT right_toes
				{
					OFFSET	0	-60	-88.6
					CHANNELS 3  Xrotation Yrotation Zrotation
					JOINT right_foot_ee
					{
						OFFSET	22.5	-16.5	-42.2
						CHANNELS 3  Xrotation Yrotation Zrotation
						End Site
						{
							OFFSET	1	0	0
						}
					}
				}
			}
		}
	}
}
MOTION
Frames: 12
Frame Time: 0.02
866.249 708.752 -1252.89 -168.482 -61.3363 -173.339 -0.165695 0.302161 0.0699153 -0.165741 0.2971 0.0890011 -0.165288 0.271327 0.150239 -0.165201 0.291649 0.105502 3.97238 2.68475 0.420023 3.99079 4.27973 0.636359 -0.0 0.0 -0.0 7.65895 -2.43001 14.9173 -5.68626 -17.0387 51.3594 4.18151 -64.211 2.62433 73.1361 -3.07212 -8.17651 1.97135 -1.14161 12.8311 -0.0 0.0 -0.0 7.74411 -5.03458 -14.9526 -28.2957 23.6554 -54.9986 0.512067 14.2338 -0.0639352 67.1493 2.45006 7.72635 -1.16616 -23.1815 -2.51562 0.0 0.0 0.0 -11.6896 11.3284 5.33793 -6.71933 0.217768 1.00764 28.3098 27.3686 -3.96803 38.1935 -0.0 -0.0 -0.0 0.0 -0.0 45.2126 -19.1551 8.29566 -17.638 -0.316276 -2.67757 37.9643 26.5584 5.4936 28.1535 -0.0 -0.0 0.0 0.0 0.0 
879.591 707.701 -1240.81 -168.065 -61.3923 -172.303 -0.016825 0.367261 -0.0212332 -0.0169002 0.367868 0.00217989 -0.0169198 0.359169 0.0795538 -0.0167402 0.367226 0.0218305 4.45453 2.71101 0.410176 4.47397 4.31318 0.616026 -0.0 0.0 -0.0 7.56715 -2.88479 14.7293 -7.05861 -16.3049 52.3688 4.21089 -64.3675 2.65079 72.4487 -2.99834 -8.12814 1.7771 -0.190988 11.8824 -0.0 0.0 -0.0 8.00472 -5.02275 -15.4516 -27.9045 23.8749 -55.1681 0.489916 13.6416 -0.0585996 67.7836 2.51369 7.77708 -1.3359 -23.2305 -1.56193 0.0 0.0 0.0 -11.6161 11.8063 4.78979 -8.4431 0.25446 1.2696 28.0789 26.8349 -3.92635 38.7813 -0.0 -0.0 -0.0 0.0 -0.0 44.9906 -19.7921 8.33935 -19.6115 -0.300058 -2.97992 38.0691 25.6371 5.451 28.4663 -0.0 -0.0 0.0 0.0 0.0 
904.167 706.969 -1226.7 -166.843 -61.7908 -171.032 0.0506922 0.386683 0.176702 0.0506313 0.374656 0.20095 0.0519576 0.324306 0.274907 0.052037 0.363652 0.220238 4.77522 2.69889 0.327608 4.79573 4.35062 0.514293 -0.0 0.0 -0.0 7.58144 -3.29787 14.7567 -8.13851 -15.8021 53.1701 4.19145 -64.2642 2.63327 71.964 -2.94667 -8.09351 1.63247 0.508359 11.1759 -0.0 0.0 -0.0 8.15133 -4.98038 -15.7347 -27.6363 24.0227 -55.2003 0.469681 13.098 -0.0539205 68.2265 2.55845 7.81208 -1.45869 -23.2569 -0.868924 0.0 0.0 0.0 -12.0472 12.0486 4.62359 -9.87974 0.279006 1.48868 27.8937 26.4639 -3.89473 39.1916 -0.0 -0.0 -0.0 0.0 -0.0 44.7885 -20.2538 8.24003 -20.9926 -0.282519 -3.1911 38.0841 24.9847 5.41639 28.6841 -0.0 -0.0 0.0 0.0 0.0 
921.424 710.965 -1217.95 -166.26 -62.3163 -170.973 0.100996 0.387175 0.282991 0.100965 0.368383 0.307055 0.102984 0.296304 0.377084 0.102959 0.352138 0.325556 5.65284 2.6969 0.243642 5.67533 4.3841 0.398145 -0.0 0.0 -0.0 7.49389 -3.21211 14.5782 -9.69966 -14.2772 54.0452 3.78503 -61.9107 2.27079 72.0195 -2.95257 -8.0975 1.47889 1.07656 10.3598 -0.0 0.0 -0.0 8.37636 -4.97664 -16.1678 -27.4602 24.1175 -55.1658 0.45498 12.7015 -0.0506385 68.4978 2.586 7.83335 -1.49936 -22.5208 -0.300068 0.0 0.0 0.0 -11.5731 12.2919 5.60011 -12.267 0.307622 1.85384 27.7644 26.2347 -3.87354 39.4737 -0.0 -0.0 -0.0 0.0 -0.0 43.5033 -20.5067 8.36948 -22.1953 -0.263103 -3.37462 37.7551 24.4882 5.35747 28.9128 -0.0 -0.0 0.0 0.0 0.0 
946.648 709.416 -1198.25 -167.715 -62.1973 -172.658 0.0228169 0.392223 0.272994 0.0227804 0.374057 0.297399 0.024764 0.303362 0.369237 0.0247526 0.357868 0.316694 6.19959 2.70972 0.217361 6.22328 4.40621 0.356023 -0.0 0.0 -0.0 7.43334 -2.91181 14.4563 -11.0081 -13.031 54.6689 3.51058 -60.085 2.03073 72.0875 -2.9598 -8.10237 1.32842 1.63888 9.56644 -0.0 0.0 -0.0 8.68587 -5.00009 -16.7643 -27.3798 24.1715 -55.273 0.446026 12.4594 -0.0486882 68.6886 2.60544 7.84824 -1.5218 -21.8242 0.14873 0.0 0.0 0.0 -11.1405 11.9921 6.02662 -13.943 0.318612 2.11075 27.6633 26.106 -3.85825 39.6677 -0.0 -0.0 -0.0 0.0 -0.0 42.6568 -20.6951 8.55823 -23.0245 -0.247473 -3.5009 37.4207 24.1017 5.30426 29.031 -0.0 -0.0 0.0 0.0 0.0 
962.629 716.638 -1187.64 -167.888 -62.3425 -173.251 -0.00225118 0.41648 0.391578 -0.00225092 0.390719 0.417286 0.000680306 0.294306 0.490074 0.000534413 0.36801 0.437445 7.27387 2.70693 0.148807 7.29968 4.41724 0.252234 -0.0 0.0 -0.0 7.42301 -3.36773 14.4322 -12.8215 -12.0975 55.7021 3.0726 -56.6833 1.65759 72.1322 -2.96457 -8.10558 1.05045 2.4846 8.03481 -0.0 0.0 -0.0 9.0439 -4.23814 -17.5039 -27.3021 24.2065 -55.2603 0.477298 13.3029 -0.05566 69.5081 2.68949 7.91142 -1.41752 -19.689 0.509396 0.0 0.0 0.0 -10.1105 11.2077 3.98143 -19.2994 0.303317 2.93214 28.7022 26.5591 -3.99399 39.9403 -0.0 -0.0 -0.0 0.0 -0.0 42.1009 -20.8223 8.72095 -23.2847 -0.242193 -3.54048 37.2551 23.7414 5.26944 29.0187 -0.0 -0.0 0.0 0.0 0.0 
987.563 722.299 -1166.07 -168.304 -63.1498 -173.113 -0.0138756 0.453432 0.440815 -0.0138677 0.424463 0.468774 -0.010286 0.316375 0.547562 -0.0104826 0.39888 0.490727 8.79884 2.6848 -0.0137312 8.82864 4.4629 0.0254952 -0.0 0.0 -0.0 7.38573 -3.69202 14.3531 -15.1875 -10.7077 57.3175 2.64891 -52.6805 1.31167 71.3179 -2.87826 -8.04667 0.756206 3.20391 6.35807 -0.0 0.0 -0.0 9.44326 -2.65117 -18.3843 -25.246 23.8494 -55.9863 0.510889 14.2024 -0.0636456 71.2562 2.87175 8.04216 -1.54458 -16.8912 2.56 0.0 0.0 0.0 -9.08686 10.2445 2.36298 -23.0576 0.246811 3.50595 28.6219 26.9395 -3.99423 39.8944 -0.0 -0.0 -0.0 0.0 -0.0 39.6465 -21.3889 8.33063 -23.7306 -0.232725 -3.60825 37.2924 21.7513 5.17738 29.485 -0.0 -0.0 0.0 0.0 0.0 
1004.96 720.036 -1153.28 -168.923 -63.5662 -173.987 -0.00931838 0.481809 0.531164 -0.0092726 0.447033 0.560745 -0.00474488 0.319162 0.642189 -0.00507825 0.416577 0.583727 9.86644 2.68444 -0.136946 9.89989 4.53029 -0.146878 -0.0 0.0 -0.0 7.31704 -3.92676 14.2098 -16.8212 -9.73377 58.3636 2.39257 -49.8372 1.11167 70.7658 -2.82022 -8.00604 0.538722 3.71286 5.11882 -0.0 0.0 -0.0 9.72155 -1.36276 -19.0153 -23.8154 23.5822 -56.4608 0.534188 14.8221 -0.0694843 72.4799 3.00167 8.13035 -1.62838 -14.8861 4.0109 0.0 0.0 0.0 -7.86282 9.53418 1.62909 -26.0106 0.176082 3.95354 28.5096 27.2107 -3.9879 39.8446 -0.0 -0.0 -0.0 0.0 -0.0 37.6845 -21.8415 7.938 -24.1716 -0.222841 -3.67521 37.321 20.3527 5.11851 29.8072 -0.0 -0.0 0.0 0.0 0.0 
1027.15 721.742 -1142.28 -170.684 -63.5002 -175.525 -0.0853114 0.528941 0.625422 -0.0852262 0.488072 0.657811 -0.0794099 0.337914 0.74615 -0.0799026 0.451511 0.683423 9.01573 3.10215 0.00696649 9.05534 5.12558 0.0510354 -0.0 0.0 -0.0 7.20154 -4.00233 13.9722 -17.8009 -7.43936 59.2038 2.15849 -46.9108 0.936628 70.3774 -2.77962 -7.97712 0.160932 4.09877 2.77844 -0.0 0.0 -0.0 9.90641 -0.135463 -19.4554 -22.9667 23.7393 -56.1115 0.566789 15.6833 -0.078061 73.3756 3.09796 8.19315 -1.69004 -13.4288 5.0817 0.0 0.0 0.0 -4.19226 8.00357 1.50456 -28.1167 0.11158 4.27031 27.3957 27.3731 -3.85722 39.3279 -0.0 -0.0 -0.0 0.0 -0.0 33.2571 -22.4352 7.57214 -24.6445 -0.211672 -3.74691 37.4412 18.3042 5.04758 30.3379 -0.0 -0.0 0.0 0.0 0.0 
1037.76 718.036 -1129.48 -171.448 -63.7971 -175.98 -0.0554306 0.52823 0.642612 -0.0553324 0.486269 0.674922 -0.0493839 0.332932 0.762318 -0.0499135 0.449145 0.700175 8.31684 3.39437 -0.0673018 8.36492 5.7132 -0.0149172 -0.0 0.0 -0.0 7.12521 -4.13445 13.8139 -18.5677 -5.78372 59.7355 1.91096 -43.4251 0.761006 70.1073 -2.75151 -7.95685 -0.166658 4.37332 0.733977 -0.0 0.0 -0.0 10.0653 0.957695 -19.8347 -21.7892 24.1544 -56.0021 0.608405 16.7722 -0.0896914 74.0143 3.16721 8.23701 -1.7121 -12.2374 5.78373 0.0 0.0 0.0 -3.08754 6.41479 2.10613 -30.6538 0.0184687 4.64851 26.6189 27.3234 -3.76059 39.1051 -0.0 -0.0 -0.0 0.0 -0.0 30.9036 -23.0704 6.58851 -24.6908 -0.210546 -3.75393 37.5455 16.6153 4.99602 30.5954 -0.0 -0.0 0.0 0.0 0.0 
1050.54 729.057 -1120.0 -172.731 -63.9654 -176.609 -0.25608 0.524399 0.502538 -0.256074 0.491359 0.534888 -0.251336 0.365236 0.627805 -0.251591 0.459801 0.562246 7.75706 3.61053 -0.117605 7.81146 6.14923 -0.0531135 -0.0 0.0 -0.0 6.98633 -4.18297 13.5288 -19.2987 -4.52533 59.9498 1.73285 -40.6393 0.641717 69.9289 -2.73299 -7.94339 -0.405889 4.55885 -0.761623 -0.0 0.0 -0.0 10.1971 1.78836 -20.1454 -20.7693 24.5748 -55.9425 0.642911 17.6657 -0.0999063 74.4497 3.21469 8.26646 -1.72376 -11.3861 6.2605 0.0 0.0 0.0 -2.14043 5.21525 2.5601 -32.619 -0.0651264 4.93848 26.0573 27.2729 -3.6898 38.9427 -0.0 -0.0 -0.0 0.0 -0.0 29.2543 -23.4889 5.92049 -24.8646 -0.20627 -3.78027 37.634 15.4045 4.96374 30.771 -0.0 -0.0 0.0 0.0 0.0 
1077.94 735.683 -1106.04 -175.137 -64.7015 -179.144 -0.324839 0.209326 0.574152 -0.324672 0.172368 0.586307 -0.322763 0.0418609 0.609683 -0.323255 0.137622 0.595421 7.36921 3.20798 -1.24462 7.44289 6.50333 -1.38016 -0.0 0.0 -0.0 8.63787 -3.73708 16.936 -21.2345 -5.29384 57.2304 1.15722 -29.8226 0.308168 71.404 -2.88734 -8.05296 -0.566408 5.9783 -1.20733 -0.0 0.0 -0.0 10.5417 5.1892 -20.9875 -18.0999 24.3636 -55.1189 0.644084 17.6959 -0.100263 74.8806 3.26191 8.29526 -1.82889 -11.444 6.90515 0.0 0.0 0.0 2.04145 2.15833 -0.737744 -44.3193 -0.764168 6.59208 29.5913 26.6195 -4.10083 39.0921 -0.0 -0.0 -0.0 0.0 -0.0 24.4975 -23.7444 6.10769 -23.8407 -0.230306 -3.62497 39.0578 12.8736 5.01768 31.8315 -0.0 -0.0 0.0 0.0 0.0 
